<svg width="437" height="540" viewBox="0 0 437 540" fill="none" xmlns="http://www.w3.org/2000/svg">
<path d="M133.056 -19.6747L142.861 -5.23426L137.982 -1.92128C136.854 -1.15527 135.797 -0.719234 134.811 -0.613165C133.829 -0.502396 132.937 -0.662665 132.136 -1.09397C131.335 -1.52528 130.645 -2.16634 130.068 -3.01716C129.49 -3.86798 129.152 -4.74052 129.053 -5.6348C128.954 -6.52908 129.136 -7.40841 129.6 -8.27279C130.067 -9.13247 130.86 -9.94212 131.979 -10.7017L135.927 -13.3828L137 -11.8034L133.108 -9.16063C132.337 -8.63719 131.793 -8.10307 131.476 -7.55827C131.154 -7.01028 131.028 -6.45764 131.098 -5.90035C131.165 -5.33518 131.396 -4.7635 131.788 -4.18532C132.181 -3.60714 132.632 -3.17523 133.142 -2.88959C133.652 -2.60395 134.224 -2.50479 134.858 -2.59212C135.496 -2.67475 136.205 -2.98097 136.985 -3.51079L140.059 -5.59817L131.308 -18.4874L133.056 -19.6747ZM130.664 -8.57257L122.705 -12.6465L124.736 -14.0254L132.638 -9.91308L130.664 -8.57257Z" fill="#FFC41F"/>
<path d="M119.705 -10.5203L129.903 3.64495L121.355 9.79984L120.259 8.27819L127.093 3.35826L123.647 -1.42804L117.256 3.17319L116.16 1.65153L122.551 -2.9497L119.085 -7.76366L112.141 -2.76406L111.045 -4.28571L119.705 -10.5203Z" fill="#FFC41F"/>
<path d="M107.725 14.6661C108.332 15.2891 109.069 15.5687 109.937 15.5048C110.804 15.4408 111.657 15.0873 112.496 14.4441C113.109 13.9738 113.57 13.4631 113.877 12.912C114.18 12.3644 114.327 11.8185 114.318 11.2742C114.304 10.7334 114.128 10.2421 113.789 9.8003C113.506 9.43062 113.174 9.18021 112.794 9.04908C112.413 8.92591 112.015 8.88361 111.601 8.92218C111.19 8.96526 110.788 9.04802 110.395 9.17045C110.006 9.2974 109.656 9.42561 109.348 9.55509L107.65 10.2553C107.217 10.4372 106.716 10.6143 106.146 10.7863C105.572 10.9619 104.971 11.061 104.344 11.0837C103.716 11.1143 103.098 11.0085 102.489 10.7662C101.881 10.5239 101.328 10.0781 100.83 9.42892C100.256 8.68053 99.9332 7.85385 99.862 6.94889C99.7864 6.04738 99.9862 5.13153 100.461 4.20134C100.932 3.27461 101.699 2.4032 102.763 1.58712C103.755 0.826357 104.737 0.327655 105.708 0.0910112C106.675 -0.142175 107.585 -0.131555 108.439 0.122871C109.289 0.380755 110.031 0.867651 110.666 1.58356L108.935 2.91143C108.489 2.42304 107.981 2.1251 107.411 2.01761C106.841 1.91808 106.255 1.96646 105.654 2.16274C105.051 2.36699 104.475 2.68005 103.925 3.10193C103.285 3.59296 102.79 4.13755 102.439 4.73569C102.093 5.33833 101.914 5.94087 101.903 6.54329C101.896 7.15022 102.086 7.70615 102.474 8.21109C102.826 8.67094 103.242 8.94658 103.72 9.03801C104.198 9.12944 104.716 9.10453 105.274 8.96327C105.831 8.82201 106.406 8.63227 106.996 8.39406L109.074 7.57384C110.394 7.055 111.592 6.84205 112.665 6.935C113.739 7.02795 114.634 7.54104 115.35 8.47427C115.945 9.24971 116.254 10.0868 116.277 10.9854C116.299 11.8921 116.077 12.7786 115.61 13.6451C115.142 14.5195 114.467 15.2956 113.583 15.9733C112.69 16.658 111.774 17.1066 110.834 17.319C109.898 17.536 109.016 17.525 108.188 17.2862C107.356 17.0509 106.661 16.5925 106.102 15.911L107.725 14.6661Z" fill="#FFC41F"/>
<path d="M94.5624 8.37229L105.62 21.8776L97.4692 28.551L96.2814 27.1002L102.797 21.7658L99.0604 17.2025L92.9672 22.1913L91.7794 20.7406L97.8726 15.7517L94.1148 11.162L87.494 16.5828L86.3062 15.132L94.5624 8.37229Z" fill="#FFC41F"/>
<path d="M82.1867 18.6436L83.8461 17.1751L90.6142 34.4936L88.9803 35.9395L72.6132 27.116L74.2726 25.6474L87.9161 33.1939L88.0183 33.1035L82.1867 18.6436ZM86.0926 24.2917L79.4039 30.2111L78.1613 28.807L84.85 22.8876L86.0926 24.2917Z" fill="#FFC41F"/>
<path d="M69.7955 29.7707L81.9366 42.3108L77.6995 46.4132C76.7198 47.3617 75.7536 47.9729 74.8008 48.2469C73.8521 48.5248 72.946 48.5202 72.0828 48.2331C71.2195 47.9459 70.4302 47.4328 69.7148 46.694C68.9995 45.9551 68.5162 45.1537 68.2649 44.2898C68.0137 43.4258 68.0423 42.5282 68.3507 41.597C68.663 40.6698 69.3049 39.7359 70.2765 38.7953L73.7054 35.4755L75.0333 36.847L71.6534 40.1194C70.9839 40.7676 70.5399 41.3873 70.3214 41.9784C70.0989 42.5735 70.0696 43.1396 70.2337 43.6767C70.3977 44.2218 70.7227 44.7454 71.2088 45.2475C71.695 45.7496 72.2137 46.0975 72.7651 46.2912C73.3165 46.485 73.8971 46.4843 74.507 46.2893C75.1209 46.0983 75.7666 45.6748 76.4442 45.0187L79.1139 42.434L68.277 31.2409L69.7955 29.7707ZM69.3469 41.1188L60.8068 38.4735L62.5702 36.7661L71.0613 39.4589L69.3469 41.1188Z" fill="#FFC41F"/>
<path d="M57.2419 59.8251L58.6768 58.2732C59.2081 58.5941 59.7487 58.7961 60.2988 58.8791C60.845 58.9663 61.3833 58.9532 61.9136 58.84C62.4442 58.7348 62.9492 58.5401 63.4287 58.256C63.9081 57.9718 64.3445 57.617 64.7379 57.1915C65.4554 56.4155 65.9093 55.5313 66.0996 54.5388C66.2861 53.5504 66.1693 52.5176 65.7491 51.4405C65.3252 50.3674 64.5583 49.3179 63.4486 48.2918C62.3389 47.2658 61.2327 46.5833 60.1298 46.2445C59.023 45.9099 57.9843 45.8742 57.0135 46.1374C56.0389 46.4047 55.1929 46.9264 54.4754 47.7023C54.0819 48.1278 53.7623 48.5907 53.5165 49.0908C53.2708 49.591 53.1141 50.1077 53.0465 50.6411C52.9792 51.1825 53.0104 51.7221 53.14 52.2598C53.27 52.8056 53.5136 53.3288 53.8709 53.8295L52.436 55.3814C51.889 54.6589 51.4996 53.9042 51.2678 53.1172C51.0359 52.3302 50.9507 51.5394 51.0121 50.7449C51.0776 49.9543 51.2807 49.1864 51.6215 48.4413C51.9583 47.7004 52.4257 47.0066 53.0236 46.3599C54.0343 45.2669 55.2 44.5418 56.5209 44.1845C57.8418 43.8272 59.2202 43.8597 60.656 44.2819C62.0919 44.7042 63.4856 45.5402 64.8373 46.79C66.1889 48.0398 67.1314 49.3639 67.6646 50.7623C68.1978 52.1608 68.338 53.5324 68.085 54.8772C67.8321 56.222 67.2003 57.4409 66.1897 58.5339C65.5918 59.1805 64.9367 59.7007 64.2244 60.0945C63.5082 60.4924 62.7565 60.753 61.9692 60.8763C61.1861 61.0035 60.3932 60.9823 59.5905 60.8127C58.7919 60.6469 58.009 60.3177 57.2419 59.8251Z" fill="#FFC41F"/>
<path d="M45.4687 55.1054L59.0741 66.0394L57.7501 67.6869L51.6914 62.8179L45.8613 70.0723L51.92 74.9414L50.5959 76.5889L36.9905 65.6549L38.3146 64.0074L44.3998 68.8978L50.2299 61.6433L44.1446 56.7529L45.4687 55.1054Z" fill="#FFC41F"/>
<path d="M29.9573 75.5348L31.1356 73.6582L42.5096 88.3677L41.3494 90.2155L23.1591 86.3615L24.3375 84.4849L39.5546 87.8809L39.6272 87.7655L29.9573 75.5348ZM35.2965 79.8534L30.5468 87.4177L28.9589 86.4206L33.7085 78.8563L35.2965 79.8534Z" fill="#FFC41F"/>
<path d="M30.8402 110.123L15.0897 102.601L15.9712 100.755L32.4368 98.0781L32.5102 97.9243L20.1436 92.0182L21.0545 90.1109L36.805 97.6331L35.9235 99.4789L19.4125 102.172L19.339 102.325L31.7364 108.246L30.8402 110.123Z" fill="#FFC41F"/>
<path d="M12.4159 109.575L13.0537 107.453L27.925 118.615L27.2971 120.704L8.73645 121.819L9.37422 119.696L24.9469 118.93L24.9861 118.8L12.4159 109.575ZM18.7101 112.321L16.1394 120.875L14.3437 120.336L16.9145 111.782L18.7101 112.321Z" fill="#FFC41F"/>
<path d="M7.87812 126.455L25.1734 128.808L24.8885 130.902L9.45112 128.802L8.3575 136.842L6.49961 136.589L7.87812 126.455Z" fill="#FFC41F"/>
<path d="M23.4965 139.647L23.6251 142.064L15.7462 147.331L15.7571 147.536L24.1506 151.937L24.2793 154.354L13.6972 148.601L6.51416 148.984L6.40182 146.873L13.5848 146.491L23.4965 139.647Z" fill="#FFC41F"/>
<path d="M22.3871 154.839L24.1412 154.177L28.7658 166.424L27.0117 167.086L25.0727 161.951L10.4977 167.455L9.75103 165.477L24.3261 159.974L22.3871 154.839Z" fill="#FFC41F"/>
<path d="M31.0331 168.852L16.8366 179.007L15.6069 177.288L29.8034 167.133L31.0331 168.852Z" fill="#FFC41F"/>
<path d="M39.6744 184.238L38.0212 182.921C38.3022 182.367 38.4639 181.813 38.5063 181.259C38.553 180.707 38.5005 180.172 38.3485 179.651C38.2046 179.129 37.9733 178.64 37.6547 178.183C37.3361 177.726 36.9501 177.317 36.4969 176.955C35.6703 176.297 34.755 175.909 33.7512 175.792C32.7518 175.679 31.7304 175.872 30.687 176.37C29.6481 176.872 28.6578 177.713 27.7161 178.896C26.7744 180.078 26.1751 181.231 25.9183 182.356C25.666 183.484 25.7067 184.523 26.0405 185.472C26.3788 186.424 26.9612 187.229 27.7878 187.888C28.2411 188.249 28.7262 188.534 29.2431 188.742C29.7599 188.95 30.2868 189.069 30.8237 189.097C31.3686 189.124 31.9044 189.053 32.4312 188.885C32.9659 188.715 33.4698 188.433 33.9428 188.04L35.596 189.357C34.9158 189.956 34.1917 190.4 33.4239 190.689C32.656 190.978 31.8737 191.121 31.0768 191.118C30.2835 191.111 29.5028 190.965 28.7346 190.68C27.9709 190.398 27.2447 189.983 26.5558 189.434C25.3915 188.507 24.5826 187.398 24.1292 186.106C23.6757 184.815 23.6068 183.438 23.9223 181.975C24.2379 180.512 24.9692 179.061 26.1162 177.621C27.2632 176.181 28.5145 175.144 29.8699 174.509C31.2254 173.875 32.583 173.634 33.9427 173.788C35.3025 173.941 36.5645 174.481 37.7289 175.409C38.4177 175.958 38.9846 176.573 39.4297 177.254C39.8793 177.939 40.1944 178.67 40.3753 179.446C40.5597 180.217 40.5968 181.01 40.4867 181.823C40.3801 182.631 40.1093 183.436 39.6744 184.238Z" fill="#FFC41F"/>
<path d="M50.8304 187.924C51.0764 187.09 50.9591 186.31 50.4786 185.585C49.998 184.86 49.2719 184.289 48.3005 183.873C47.5902 183.569 46.9195 183.418 46.2883 183.419C45.6624 183.423 45.1144 183.562 44.6444 183.837C44.1797 184.114 43.8377 184.508 43.6184 185.02C43.435 185.448 43.3791 185.86 43.4508 186.256C43.5299 186.648 43.6878 187.015 43.9244 187.358C44.1632 187.695 44.4322 188.005 44.7314 188.288C45.0329 188.565 45.3157 188.807 45.5798 189.013L47.0214 190.149C47.3922 190.438 47.7922 190.789 48.2212 191.201C48.6555 191.616 49.0361 192.091 49.363 192.627C49.6973 193.159 49.9078 193.75 49.9944 194.399C50.0811 195.048 49.9634 195.749 49.6412 196.501C49.2698 197.368 48.707 198.054 47.9529 198.559C47.2039 199.067 46.3076 199.341 45.2638 199.382C44.2253 199.426 43.0898 199.183 41.8572 198.655C40.7082 198.163 39.7927 197.552 39.1106 196.821C38.4338 196.092 37.9972 195.293 37.8009 194.424C37.6097 193.557 37.6707 192.671 37.9839 191.767L39.9895 192.626C39.7822 193.254 39.7711 193.843 39.9562 194.392C40.1488 194.938 40.4779 195.425 40.9435 195.853C41.4166 196.279 41.9717 196.628 42.6089 196.901C43.3505 197.218 44.0679 197.383 44.761 197.396C45.4563 197.403 46.0692 197.264 46.5996 196.978C47.1322 196.687 47.5238 196.249 47.7744 195.664C48.0026 195.131 48.0394 194.634 47.8849 194.172C47.7304 193.711 47.455 193.271 47.0588 192.854C46.6626 192.437 46.216 192.03 45.719 191.631L43.9864 190.222C42.8873 189.324 42.1154 188.385 41.6705 187.403C41.2257 186.421 41.2348 185.39 41.698 184.309C42.0828 183.41 42.6612 182.731 43.4333 182.271C44.2128 181.807 45.0946 181.567 46.0787 181.549C47.0702 181.529 48.0778 181.738 49.1015 182.177C50.1356 182.62 50.9754 183.199 51.6208 183.914C52.2685 184.624 52.691 185.399 52.8881 186.237C53.0904 187.078 53.0312 187.909 52.7106 188.729L50.8304 187.924Z" fill="#FFC41F"/>
<path d="M65.231 205.532L59.9408 204.518L63.2247 187.375L68.7493 188.434C70.4122 188.752 71.7695 189.368 72.821 190.281C73.8736 191.188 74.5928 192.341 74.9786 193.74C75.3655 195.133 75.3889 196.717 75.049 198.492C74.7069 200.277 74.0944 201.754 73.2113 202.921C72.3292 204.083 71.2137 204.893 69.8646 205.352C68.5166 205.805 66.9721 205.865 65.231 205.532ZM62.3695 203.074L65.4498 203.664C66.8673 203.936 68.0943 203.887 69.131 203.519C70.1677 203.151 71.0115 202.505 71.6626 201.583C72.3137 200.661 72.7728 199.502 73.0401 198.107C73.3052 196.723 73.3074 195.488 73.0467 194.403C72.7871 193.312 72.2594 192.412 71.4636 191.704C70.6689 190.991 69.6019 190.506 68.2626 190.249L64.9478 189.615L62.3695 203.074Z" fill="#FFC41F"/>
<path d="M78.6267 207.794L76.4216 207.576L84.52 190.838L86.6912 191.053L91.3485 209.055L89.1434 208.836L85.4013 193.7L85.2656 193.687L78.6267 207.794ZM80.113 201.09L89.0013 201.97L88.8165 203.836L79.9282 202.956L80.113 201.09Z" fill="#FFC41F"/>
<path d="M94.9254 193.696L95.0032 191.823L108.083 192.366L108.005 194.239L102.521 194.011L101.875 209.578L99.763 209.49L100.409 193.924L94.9254 193.696Z" fill="#FFC41F"/>
<path d="M111.872 209.906L109.656 209.9L116.108 192.462L118.289 192.467L124.656 209.937L122.44 209.932L117.26 195.226L117.124 195.226L111.872 209.906ZM112.706 203.09L121.638 203.112L121.634 204.987L112.702 204.965L112.706 203.09Z" fill="#FFC41F"/>
<path d="M134.648 192.326L137.169 192.234L143.621 206.499L143.826 206.491L149.229 191.797L151.75 191.706L152.382 209.149L150.406 209.221L149.926 195.968L149.756 195.974L144.785 209.424L142.877 209.493L136.946 196.438L136.776 196.444L137.256 209.697L135.28 209.769L134.648 192.326Z" fill="#FFC41F"/>
<path d="M157.454 208.897L156.558 191.466L158.669 191.357L159.469 206.916L167.572 206.5L167.668 208.372L157.454 208.897Z" fill="#FFC41F"/>
<path d="M177.779 207.799L176.734 190.376L182.621 190.023C183.982 189.941 185.113 190.107 186.015 190.519C186.916 190.926 187.6 191.52 188.068 192.3C188.536 193.08 188.801 193.984 188.862 195.01C188.924 196.037 188.769 196.96 188.397 197.779C188.025 198.598 187.418 199.261 186.578 199.766C185.737 200.267 184.641 200.557 183.292 200.638L178.527 200.924L178.413 199.018L183.109 198.736C184.039 198.681 184.78 198.5 185.331 198.193C185.887 197.887 186.278 197.476 186.503 196.962C186.734 196.442 186.828 195.832 186.787 195.135C186.745 194.437 186.578 193.835 186.286 193.329C185.993 192.823 185.552 192.445 184.963 192.196C184.372 191.941 183.607 191.842 182.665 191.899L178.956 192.121L179.888 207.673L177.779 207.799ZM185.51 199.48L190.267 207.05L187.817 207.197L183.128 199.623L185.51 199.48Z" fill="#FFC41F"/>
<path d="M192.267 206.924L191.207 189.502L201.722 188.862L201.836 190.734L193.431 191.245L193.789 197.132L201.649 196.654L201.763 198.525L193.903 199.004L194.263 204.925L202.804 204.405L202.918 206.276L192.267 206.924Z" fill="#FFC41F"/>
<path d="M217.381 192.315C217.23 191.459 216.777 190.813 216.024 190.378C215.271 189.943 214.366 189.756 213.311 189.817C212.54 189.861 211.872 190.024 211.308 190.307C210.749 190.589 210.321 190.958 210.022 191.414C209.73 191.869 209.599 192.374 209.631 192.93C209.658 193.395 209.791 193.789 210.032 194.111C210.277 194.427 210.583 194.685 210.947 194.886C211.311 195.082 211.69 195.239 212.084 195.359C212.477 195.473 212.838 195.563 213.166 195.63L214.964 196.005C215.424 196.098 215.938 196.234 216.506 196.412C217.08 196.589 217.632 196.845 218.164 197.179C218.7 197.507 219.152 197.942 219.519 198.484C219.886 199.026 220.093 199.706 220.14 200.523C220.194 201.465 219.996 202.33 219.546 203.118C219.101 203.906 218.421 204.551 217.505 205.053C216.595 205.555 215.471 205.844 214.132 205.921C212.884 205.993 211.792 205.853 210.855 205.503C209.925 205.152 209.178 204.631 208.615 203.941C208.057 203.25 207.717 202.43 207.594 201.481L209.773 201.356C209.867 202.011 210.12 202.543 210.53 202.952C210.946 203.355 211.457 203.644 212.065 203.82C212.678 203.99 213.331 204.055 214.023 204.015C214.828 203.969 215.544 203.797 216.17 203.499C216.796 203.196 217.282 202.798 217.63 202.306C217.977 201.808 218.132 201.241 218.096 200.606C218.062 200.027 217.874 199.566 217.53 199.221C217.186 198.877 216.743 198.606 216.203 198.409C215.662 198.213 215.081 198.047 214.458 197.912L212.279 197.422C210.895 197.109 209.785 196.612 208.949 195.931C208.114 195.251 207.662 194.323 207.595 193.149C207.539 192.173 207.754 191.307 208.24 190.551C208.731 189.789 209.413 189.181 210.287 188.726C211.165 188.266 212.16 188.004 213.272 187.941C214.395 187.876 215.405 188.02 216.302 188.373C217.198 188.72 217.921 189.225 218.472 189.888C219.027 190.55 219.345 191.32 219.423 192.198L217.381 192.315Z" fill="#FFC41F"/>
<path d="M223.241 205.093L222.37 187.661L232.891 187.135L232.984 189.007L224.574 189.428L224.869 195.318L232.734 194.925L232.827 196.798L224.962 197.191L225.258 203.115L233.805 202.688L233.898 204.561L223.241 205.093Z" fill="#FFC41F"/>
<path d="M239.114 204.311L236.9 204.394L242.653 186.712L244.833 186.631L251.89 203.834L249.675 203.917L243.914 189.429L243.778 189.434L239.114 204.311ZM239.677 197.467L248.603 197.134L248.673 199.008L239.747 199.341L239.677 197.467Z" fill="#FFC41F"/>
<path d="M256.819 203.691L256.507 186.239L262.404 186.134C263.767 186.109 264.891 186.322 265.774 186.773C266.657 187.217 267.316 187.839 267.751 188.638C268.185 189.437 268.412 190.351 268.43 191.379C268.449 192.407 268.255 193.323 267.849 194.126C267.443 194.929 266.809 195.565 265.948 196.035C265.087 196.499 263.98 196.744 262.628 196.768L257.856 196.853L257.822 194.944L262.526 194.86C263.457 194.844 264.205 194.694 264.768 194.411C265.337 194.128 265.745 193.734 265.992 193.23C266.244 192.72 266.364 192.115 266.351 191.416C266.339 190.718 266.197 190.109 265.926 189.591C265.656 189.073 265.231 188.677 264.652 188.404C264.073 188.124 263.312 187.993 262.369 188.01L258.654 188.076L258.932 203.653L256.819 203.691ZM264.894 195.704L269.328 203.467L266.874 203.511L262.508 195.747L264.894 195.704Z" fill="#FFC41F"/>
<path d="M286.726 191.552L284.613 191.534C284.493 190.925 284.278 190.389 283.97 189.927C283.667 189.464 283.295 189.074 282.854 188.758C282.419 188.436 281.936 188.194 281.403 188.03C280.87 187.867 280.314 187.783 279.734 187.778C278.678 187.769 277.718 188.028 276.856 188.555C275.999 189.082 275.314 189.863 274.799 190.899C274.291 191.934 274.03 193.208 274.017 194.719C274.005 196.23 274.244 197.508 274.736 198.552C275.233 199.596 275.905 200.388 276.753 200.93C277.606 201.471 278.562 201.746 279.618 201.755C280.198 201.759 280.755 201.684 281.291 201.53C281.826 201.375 282.314 201.143 282.754 200.835C283.2 200.52 283.578 200.134 283.889 199.676C284.205 199.213 284.428 198.681 284.558 198.08L286.672 198.097C286.505 198.988 286.209 199.784 285.782 200.485C285.356 201.186 284.829 201.781 284.199 202.27C283.57 202.753 282.866 203.12 282.085 203.369C281.31 203.618 280.483 203.739 279.602 203.732C278.113 203.719 276.793 203.345 275.64 202.608C274.486 201.871 273.583 200.829 272.93 199.483C272.276 198.137 271.957 196.543 271.972 194.702C271.987 192.861 272.333 191.273 273.009 189.938C273.685 188.602 274.605 187.576 275.77 186.858C276.935 186.141 278.262 185.788 279.751 185.801C280.632 185.808 281.457 185.943 282.228 186.205C283.004 186.467 283.703 186.848 284.323 187.347C284.944 187.841 285.462 188.442 285.877 189.15C286.291 189.852 286.574 190.653 286.726 191.552Z" fill="#FFC41F"/>
<path d="M289.945 203.622L290.733 186.185L292.844 186.28L292.493 194.045L301.791 194.465L302.141 186.7L304.253 186.796L303.466 204.232L301.354 204.137L301.706 196.338L292.409 195.918L292.057 203.717L289.945 203.622Z" fill="#FFC41F"/>
<path d="M313.535 204.983L311.333 204.735L319.659 188.109L321.827 188.354L326.238 206.417L324.036 206.169L320.501 190.983L320.366 190.968L313.535 204.983ZM315.113 198.3L323.988 199.302L323.778 201.165L314.902 200.163L315.113 198.3Z" fill="#FFC41F"/>
<path d="M344.789 191.937L341.612 209.1L339.6 208.728L332.743 193.52L332.575 193.489L330.08 206.965L328.002 206.58L331.18 189.417L333.191 189.79L340.076 205.036L340.243 205.068L342.745 191.558L344.789 191.937Z" fill="#FFC41F"/>
<path d="M347.799 210.49L345.674 209.862L356.762 194.936L358.855 195.554L360.06 214.109L357.935 213.481L357.092 197.913L356.961 197.874L347.799 210.49ZM350.514 204.182L359.081 206.71L358.55 208.509L349.983 205.98L350.514 204.182Z" fill="#FFC41F"/>
<path d="M362.481 215.025L369.35 198.979L371.293 199.811L365.162 214.133L372.621 217.326L371.883 219.05L362.481 215.025Z" fill="#FFC41F"/>
<path d="M381.671 204.219L383.735 205.483L383.607 214.96L383.781 215.066L392.165 210.648L394.229 211.912L383.491 217.367L379.733 223.501L377.931 222.397L381.688 216.263L381.671 204.219Z" fill="#FFC41F"/>
<path d="M396.053 215.51L397.328 214.135L406.928 223.036L405.653 224.411L401.628 220.679L391.036 232.104L389.486 230.667L400.078 219.242L396.053 215.51Z" fill="#FFC41F"/>
<path d="M411.317 228.467L397.604 239.267L396.296 237.607L410.009 226.807L411.317 228.467Z" fill="#FFC41F"/>
<path d="M417.774 249.78L416.8 247.904C417.282 247.513 417.655 247.072 417.92 246.583C418.187 246.099 418.357 245.588 418.43 245.05C418.511 244.516 418.499 243.974 418.394 243.427C418.289 242.88 418.103 242.349 417.836 241.835C417.349 240.897 416.671 240.17 415.802 239.655C414.935 239.144 413.924 238.904 412.768 238.934C411.615 238.97 410.367 239.336 409.026 240.032C407.685 240.728 406.668 241.538 405.975 242.461C405.285 243.389 404.9 244.354 404.818 245.356C404.74 246.364 404.944 247.337 405.431 248.275C405.698 248.789 406.025 249.246 406.412 249.647C406.799 250.048 407.233 250.37 407.711 250.615C408.198 250.861 408.716 251.015 409.266 251.075C409.824 251.138 410.398 251.086 410.991 250.919L411.964 252.795C411.099 253.065 410.257 253.176 409.438 253.127C408.619 253.079 407.846 252.891 407.12 252.564C406.398 252.234 405.744 251.783 405.159 251.21C404.576 250.642 404.082 249.967 403.676 249.186C402.99 247.864 402.703 246.522 402.814 245.158C402.926 243.794 403.423 242.508 404.307 241.301C405.191 240.093 406.45 239.065 408.083 238.216C409.717 237.368 411.282 236.93 412.779 236.902C414.275 236.875 415.613 237.208 416.793 237.901C417.972 238.595 418.905 239.602 419.591 240.924C419.997 241.705 420.264 242.498 420.393 243.301C420.525 244.11 420.515 244.906 420.365 245.688C420.219 246.468 419.93 247.207 419.499 247.905C419.072 248.6 418.497 249.225 417.774 249.78Z" fill="#FFC41F"/>
<path d="M423.065 263.035C423.865 262.695 424.392 262.109 424.647 261.277C424.901 260.445 424.88 259.522 424.583 258.507C424.367 257.766 424.057 257.152 423.655 256.666C423.254 256.185 422.798 255.85 422.287 255.662C421.778 255.479 421.256 255.466 420.722 255.622C420.275 255.753 419.921 255.972 419.661 256.278C419.409 256.589 419.226 256.944 419.112 257.345C419.003 257.743 418.935 258.148 418.907 258.559C418.884 258.968 418.878 259.34 418.887 259.674L418.926 261.51C418.939 261.98 418.922 262.511 418.877 263.105C418.832 263.704 418.708 264.299 418.502 264.892C418.303 265.489 417.981 266.027 417.535 266.506C417.089 266.986 416.474 267.34 415.688 267.57C414.783 267.834 413.895 267.836 413.026 267.575C412.158 267.32 411.377 266.802 410.681 266.023C409.988 265.249 409.453 264.218 409.077 262.931C408.726 261.731 408.616 260.636 408.747 259.644C408.879 258.659 409.218 257.814 409.765 257.11C410.312 256.411 411.035 255.895 411.932 255.562L412.544 257.656C411.927 257.896 411.465 258.261 411.159 258.753C410.86 259.249 410.693 259.813 410.659 260.444C410.631 261.08 410.715 261.73 410.909 262.396C411.135 263.17 411.464 263.829 411.895 264.372C412.331 264.913 412.828 265.298 413.386 265.525C413.949 265.752 414.537 265.775 415.147 265.597C415.704 265.434 416.111 265.147 416.369 264.734C416.627 264.321 416.791 263.829 416.861 263.258C416.931 262.687 416.962 262.083 416.954 261.447L416.941 259.213C416.934 257.794 417.169 256.601 417.644 255.633C418.119 254.666 418.921 254.017 420.05 253.688C420.988 253.414 421.88 253.428 422.727 253.731C423.58 254.039 424.326 254.566 424.965 255.315C425.611 256.067 426.09 256.978 426.402 258.047C426.718 259.127 426.805 260.143 426.663 261.096C426.526 262.048 426.197 262.866 425.675 263.551C425.155 264.242 424.476 264.725 423.638 264.999L423.065 263.035Z" fill="#FFC41F"/>
<path d="M412.813 282.184L412.578 276.802L430.016 276.04L430.262 281.66C430.335 283.351 430.05 284.814 429.404 286.048C428.764 287.282 427.808 288.248 426.536 288.946C425.27 289.644 423.734 290.032 421.929 290.111C420.113 290.191 418.535 289.935 417.195 289.346C415.862 288.756 414.816 287.857 414.058 286.65C413.305 285.444 412.891 283.955 412.813 282.184ZM414.544 278.832L414.68 281.965C414.743 283.407 415.074 284.59 415.672 285.514C416.269 286.437 417.092 287.109 418.14 287.53C419.188 287.95 420.421 288.13 421.84 288.068C423.248 288.006 424.45 287.723 425.446 287.219C426.447 286.715 427.201 285.994 427.706 285.056C428.216 284.118 428.442 282.968 428.382 281.606L428.235 278.234L414.544 278.832Z" fill="#FFC41F"/>
<path d="M412.859 294.646L413.145 292.449L429.625 301.059L429.343 303.223L411.207 307.323L411.493 305.126L426.737 301.852L426.755 301.717L412.859 294.646ZM419.514 296.338L418.36 305.195L416.501 304.953L417.655 296.096L419.514 296.338Z" fill="#FFC41F"/>
<path d="M425.957 312.475L427.768 312.959L424.384 325.605L422.572 325.12L423.991 319.818L408.942 315.79L409.488 313.748L424.538 317.777L425.957 312.475Z" fill="#FFC41F"/>
<path d="M406.225 324.693L407.037 322.631L420.926 334.994L420.126 337.023L401.537 336.586L402.35 334.525L417.932 335.059L417.982 334.933L406.225 324.693ZM412.268 327.954L408.993 336.264L407.249 335.576L410.524 327.266L412.268 327.954Z" fill="#FFC41F"/>
<path d="M413.054 352.856L411.818 355.055L396.281 353.13L396.181 353.308L405.907 365.577L404.671 367.776L389.454 359.227L390.422 357.503L401.984 363.998L402.067 363.85L393.177 352.599L394.113 350.934L408.346 352.675L408.429 352.526L396.868 346.03L397.836 344.306L413.054 352.856Z" fill="#FFC41F"/>
<path d="M386.928 363.006L401.453 372.685L400.281 374.444L387.316 365.805L382.817 372.557L381.257 371.517L386.928 363.006Z" fill="#FFC41F"/>
<path d="M375.901 378.934L389.725 389.589L386.125 394.261C385.292 395.341 384.425 396.085 383.521 396.493C382.623 396.905 381.726 397.032 380.83 396.872C379.934 396.713 379.079 396.319 378.265 395.691C377.45 395.063 376.856 394.34 376.483 393.521C376.109 392.703 376.008 391.81 376.179 390.844C376.354 389.882 376.854 388.865 377.68 387.794L380.594 384.014L382.106 385.179L379.234 388.906C378.665 389.644 378.315 390.321 378.184 390.937C378.05 391.558 378.102 392.123 378.342 392.631C378.583 393.146 378.981 393.617 379.534 394.044C380.088 394.471 380.651 394.74 381.225 394.852C381.798 394.964 382.373 394.88 382.948 394.599C383.528 394.321 384.106 393.809 384.682 393.062L386.95 390.119L374.611 380.608L375.901 378.934ZM377.096 390.228L368.263 388.843L369.761 386.899L378.552 388.337L377.096 390.228Z" fill="#FFC41F"/>
<path d="M366.269 391.236L379.629 402.469L372.85 410.532L371.415 409.325L376.833 402.88L372.319 399.085L367.251 405.112L365.816 403.906L370.884 397.878L366.344 394.061L360.837 400.61L359.402 399.404L366.269 391.236Z" fill="#FFC41F"/>
<path d="M359.961 418.374C360.669 418.879 361.444 419.022 362.287 418.804C363.129 418.586 363.905 418.085 364.615 417.303C365.134 416.73 365.496 416.145 365.7 415.548C365.9 414.955 365.947 414.392 365.841 413.858C365.731 413.328 365.469 412.877 365.057 412.502C364.712 412.189 364.341 412.002 363.943 411.941C363.547 411.888 363.148 411.918 362.747 412.03C362.35 412.146 361.97 412.299 361.605 412.49C361.244 412.684 360.924 412.873 360.643 413.055L359.098 414.048C358.705 414.304 358.243 414.568 357.713 414.839C357.179 415.115 356.606 415.32 355.993 415.454C355.381 415.596 354.754 415.603 354.112 415.473C353.47 415.344 352.846 415.004 352.24 414.454C351.541 413.821 351.076 413.065 350.844 412.187C350.609 411.314 350.641 410.377 350.943 409.377C351.24 408.381 351.839 407.386 352.74 406.393C353.58 405.467 354.457 404.801 355.37 404.395C356.28 403.992 357.177 403.84 358.063 403.938C358.945 404.039 359.762 404.386 360.515 404.977L359.049 406.593C358.523 406.192 357.97 405.989 357.39 405.986C356.811 405.99 356.244 406.142 355.687 406.443C355.131 406.751 354.62 407.162 354.154 407.676C353.612 408.273 353.222 408.898 352.984 409.549C352.751 410.204 352.683 410.829 352.78 411.423C352.882 412.022 353.168 412.535 353.639 412.962C354.069 413.351 354.527 413.548 355.014 413.553C355.501 413.557 356.006 413.44 356.529 413.201C357.052 412.963 357.583 412.673 358.122 412.333L360.019 411.155C361.226 410.408 362.366 409.985 363.439 409.884C364.512 409.784 365.484 410.129 366.355 410.919C367.079 411.575 367.533 412.344 367.717 413.224C367.901 414.112 367.84 415.024 367.536 415.96C367.232 416.904 366.706 417.788 365.958 418.613C365.202 419.446 364.381 420.051 363.494 420.428C362.612 420.809 361.742 420.956 360.885 420.869C360.024 420.786 359.258 420.46 358.587 419.889L359.961 418.374Z" fill="#FFC41F"/>
<path d="M346.23 413.896L358.797 426.01L351.486 433.594L350.136 432.293L355.98 426.23L351.734 422.137L346.268 427.807L344.918 426.505L350.384 420.836L346.113 416.719L340.174 422.879L338.825 421.578L346.23 413.896Z" fill="#FFC41F"/>
<path d="M335.323 425.068L336.909 423.52L344.516 440.487L342.954 442.011L326.175 433.998L327.761 432.45L341.757 439.32L341.855 439.225L335.323 425.068ZM339.5 430.518L333.109 436.757L331.799 435.416L338.191 429.176L339.5 430.518Z" fill="#FFC41F"/>
<path d="M323.727 436.272L335.575 449.09L331.244 453.093C330.243 454.019 329.263 454.607 328.304 454.859C327.349 455.115 326.443 455.09 325.587 454.783C324.731 454.476 323.953 453.944 323.255 453.189C322.557 452.434 322.092 451.622 321.861 450.752C321.63 449.883 321.679 448.986 322.009 448.062C322.343 447.142 323.006 446.224 323.999 445.306L327.504 442.066L328.8 443.468L325.345 446.661C324.661 447.294 324.203 447.903 323.971 448.489C323.734 449.079 323.692 449.644 323.844 450.185C323.995 450.733 324.308 451.264 324.782 451.778C325.257 452.291 325.767 452.651 326.314 452.857C326.861 453.064 327.441 453.076 328.055 452.895C328.674 452.719 329.329 452.31 330.021 451.67L332.75 449.148L322.175 437.707L323.727 436.272ZM323.016 447.607L314.539 444.765L316.342 443.099L324.768 445.987L323.016 447.607Z" fill="#FFC41F"/>
<path d="M309.482 465.232L311.069 463.836C311.564 464.209 312.081 464.466 312.62 464.605C313.154 464.748 313.691 464.79 314.23 464.732C314.769 464.682 315.291 464.54 315.797 464.307C316.303 464.074 316.774 463.766 317.209 463.383C318.002 462.685 318.545 461.852 318.836 460.884C319.123 459.92 319.113 458.881 318.806 457.766C318.494 456.655 317.839 455.532 316.841 454.398C315.843 453.263 314.812 452.47 313.75 452.02C312.684 451.573 311.654 451.431 310.662 451.593C309.665 451.759 308.769 452.191 307.976 452.889C307.541 453.272 307.175 453.699 306.879 454.171C306.584 454.644 306.375 455.142 306.253 455.665C306.13 456.197 306.106 456.737 306.179 457.285C306.252 457.841 306.441 458.387 306.745 458.921L305.158 460.318C304.688 459.543 304.378 458.752 304.229 457.945C304.079 457.139 304.076 456.343 304.218 455.559C304.365 454.78 304.646 454.037 305.061 453.33C305.472 452.628 306.009 451.986 306.67 451.404C307.788 450.421 309.022 449.82 310.372 449.6C311.723 449.38 313.091 449.554 314.476 450.122C315.86 450.69 317.161 451.664 318.377 453.047C319.593 454.429 320.394 455.843 320.781 457.288C321.167 458.734 321.166 460.113 320.776 461.425C320.386 462.736 319.632 463.884 318.515 464.867C317.854 465.449 317.148 465.899 316.399 466.217C315.646 466.54 314.872 466.722 314.076 466.763C313.284 466.809 312.497 466.707 311.716 466.456C310.939 466.209 310.194 465.801 309.482 465.232Z" fill="#FFC41F"/>
<path d="M298.554 458.779L309.761 472.16L308.14 473.517L303.15 467.559L296.015 473.534L301.005 479.493L299.385 480.85L288.178 467.469L289.798 466.112L294.811 472.097L301.946 466.121L296.933 460.136L298.554 458.779Z" fill="#FFC41F"/>
<path d="M279.861 474.212L281.596 472.833L287.438 490.486L285.73 491.843L269.852 482.166L271.587 480.787L284.812 489.045L284.919 488.96L279.861 474.212ZM283.462 480.059L276.47 485.616L275.303 484.148L282.296 478.591L283.462 480.059Z" fill="#FFC41F"/>
<path d="M266.648 506.599L256.057 492.725L257.683 491.484L273.559 496.606L273.695 496.503L265.379 485.609L267.059 484.327L277.65 498.201L276.024 499.442L260.1 494.314L259.965 494.417L268.301 505.338L266.648 506.599Z" fill="#FFC41F"/>
<path d="M251.595 496.051L253.378 494.735L258.587 512.585L256.832 513.881L241.309 503.643L243.092 502.327L256.015 511.051L256.124 510.97L251.595 496.051ZM254.986 502.023L247.8 507.327L246.686 505.819L253.872 500.514L254.986 502.023Z" fill="#FFC41F"/>
<path d="M238.58 505.591L248.756 519.773L247.039 521.005L237.956 508.347L231.363 513.077L230.27 511.554L238.58 505.591Z" fill="#FFC41F"/>
<path d="M238.474 527.129L236.49 528.516L227.854 524.61L227.687 524.727L228.386 534.179L226.402 535.565L225.694 523.541L221.573 517.645L223.306 516.435L227.426 522.331L238.474 527.129Z" fill="#FFC41F"/>
<path d="M223.661 535.158L224.715 536.709L213.889 544.069L212.835 542.518L217.374 539.432L208.615 526.548L210.363 525.36L219.122 538.244L223.661 535.158Z" fill="#FFC41F"/>
<path d="M208.862 547.413L199.171 532.895L200.929 531.722L210.62 546.239L208.862 547.413Z" fill="#FFC41F"/>
<path d="M189.947 553.326L191.716 552.168C192.153 552.608 192.629 552.936 193.142 553.15C193.651 553.367 194.176 553.485 194.718 553.503C195.259 553.53 195.796 553.464 196.33 553.304C196.864 553.145 197.373 552.907 197.858 552.589C198.742 552.011 199.397 551.263 199.823 550.346C200.243 549.433 200.381 548.402 200.234 547.255C200.083 546.112 199.594 544.907 198.766 543.643C197.939 542.378 197.031 541.448 196.043 540.851C195.051 540.258 194.052 539.972 193.046 539.991C192.036 540.014 191.089 540.315 190.204 540.894C189.719 541.211 189.297 541.583 188.937 542.008C188.577 542.434 188.3 542.897 188.105 543.398C187.909 543.907 187.808 544.438 187.803 544.991C187.797 545.552 187.906 546.119 188.131 546.691L186.363 547.849C186.008 547.015 185.813 546.189 185.779 545.369C185.745 544.549 185.854 543.761 186.106 543.005C186.362 542.254 186.745 541.559 187.256 540.918C187.763 540.281 188.385 539.722 189.122 539.239C190.367 538.424 191.674 538.004 193.042 537.977C194.41 537.951 195.74 538.317 197.03 539.075C198.321 539.833 199.47 540.982 200.478 542.523C201.486 544.063 202.079 545.576 202.257 547.062C202.435 548.548 202.238 549.913 201.667 551.156C201.095 552.399 200.187 553.429 198.941 554.244C198.204 554.726 197.442 555.072 196.656 555.281C195.864 555.493 195.072 555.564 194.278 555.492C193.488 555.426 192.724 555.213 191.986 554.853C191.251 554.499 190.572 553.99 189.947 553.326Z" fill="#FFC41F"/>
</svg>
